<svg width="85" height="23" viewBox="0 0 85 23" fill="none" xmlns="http://www.w3.org/2000/svg">
<path d="M55.1797 16.9392C55.1167 17.7783 55.1574 18.6474 54.9646 19.4528C54.5085 21.367 52.6693 21.9588 51.1119 21.6254C49.9736 21.3819 49.3692 20.5841 48.8611 19.6438C48.8426 19.6101 48.8686 19.5539 48.8797 19.4266C49.4804 19.4715 50.0848 19.5052 50.6855 19.5689C50.8079 19.5801 50.934 19.6775 51.0378 19.7599C51.7868 20.393 52.7287 20.1795 53.1328 19.2805C53.3108 19.0033 53.4109 18.7223 53.1328 18.4114C52.9511 18.5088 52.762 18.6137 52.5692 18.7148C51.6199 19.1156 50.7041 18.9733 49.9661 18.3178C49.5026 17.9057 49.232 17.2764 48.8723 16.7444L48.787 14.5943C49.3617 14.5943 49.9402 14.5943 50.5149 14.5943C50.4964 15.1299 50.4222 15.6731 50.4779 16.2013C50.5112 16.5047 50.6855 16.8718 50.9154 17.0591C51.746 17.7334 52.8881 17.415 53.1996 16.3661C53.322 15.9503 53.3331 15.4783 53.296 15.0438C53.2033 13.9762 52.8399 13.0884 51.5903 13.2832C51.4865 13.2982 51.3752 13.2869 51.2677 13.2869C51.1898 13.1034 51.1045 12.9198 51.0378 12.7325C50.9228 12.4254 50.819 12.1144 50.7115 11.8035C51.5532 11.6574 52.3986 11.5526 53.2255 11.8785C54.2712 12.2905 55.061 13.1446 55.0722 14.3433C55.0796 15.1749 55.1426 16.0102 55.1797 16.8418C55.1797 16.8718 55.1797 16.9055 55.1797 16.9355V16.9392Z" fill="white"/>
<path d="M77.5171 6.82515C77.6173 8.70188 75.9115 9.75824 74.4654 9.73951C73.5977 9.72827 72.7523 9.66084 72.0811 9.07273C71.7548 8.78803 71.5471 8.361 71.3061 7.9864C71.2097 7.83656 71.1615 7.65301 71.0911 7.48444C71.0614 6.70528 71.028 5.92238 70.9984 5.14322C71.117 4.82856 71.2357 4.51764 71.3543 4.20298C71.3654 4.14305 71.3766 4.08311 71.3877 4.02318C71.4211 3.98946 71.4544 3.9595 71.4878 3.92578C71.9291 2.67838 74.4135 1.87675 75.715 3.42757C75.7336 3.0792 75.7447 2.79825 75.7595 2.5173C76.0969 2.39369 76.4344 2.27382 76.7421 2.16144C77.0091 2.27382 77.2946 2.39743 77.5839 2.5173C77.5616 3.23653 77.5431 3.95201 77.5208 4.67123C77.5208 5.39045 77.5208 6.10968 77.5208 6.8289L77.5171 6.82515ZM75.741 6.23329C75.7818 6.21831 75.8263 6.20332 75.867 6.18834C75.7039 5.69013 75.5889 5.16944 75.359 4.70494C75.0921 4.15429 74.547 4.05689 73.9945 4.11308C73.5458 4.15803 73.238 4.4165 73.0489 4.84729C72.7189 5.59273 72.6781 6.35316 72.8709 7.12858C73.1305 8.16995 73.9314 8.49585 74.8992 8.06881C75.6594 7.73167 75.7818 6.99747 75.741 6.23329Z" fill="white"/>
<path d="M50.8969 6.67152H47.2111C47.2815 7.53309 47.6672 8.01631 48.3939 8.22609C48.9316 8.45085 49.41 8.36094 49.7956 7.95263C50.4705 7.54058 51.1972 7.88146 51.9352 7.72788C51.8091 8.48831 51.3159 8.9116 50.8301 9.23C49.2468 10.2714 47.441 9.90428 46.2136 8.6756C45.7204 8.18114 45.4497 7.51436 45.4275 6.7839C45.4015 5.84741 45.4015 4.92965 45.8836 4.05684C46.3397 3.23648 47.0331 2.75699 47.8711 2.64461C48.635 2.54347 49.4507 2.65211 50.2146 2.81318C51.1639 3.01546 52.0019 4.2741 52.013 5.16564C52.0204 5.56646 52.0835 5.96353 52.0909 6.3606C52.0909 6.46174 51.9759 6.56288 51.9129 6.66403C51.8832 6.66403 51.8499 6.66403 51.8202 6.66403C51.6978 6.66403 51.5718 6.66403 51.4494 6.66403C51.3901 6.66403 51.327 6.66777 51.2677 6.67152C51.175 6.67152 51.0823 6.67152 50.9859 6.66777C50.9562 6.66777 50.9229 6.66777 50.8932 6.66777L50.8969 6.67152ZM48.761 5.42037C49.1467 5.42037 49.5286 5.42037 49.9143 5.42037C50.2369 5.42037 50.3184 5.30424 50.1775 4.98958C49.8772 4.33404 49.3803 4.01563 48.6758 4.01563C48.0083 4.01563 47.6004 4.36026 47.3594 4.98584C47.237 5.3005 47.2778 5.42037 47.6078 5.42037C47.9935 5.42037 48.3754 5.42037 48.761 5.42037Z" fill="white"/>
<path d="M78.7037 3.91452C79.0893 3.00425 79.9236 2.67836 80.7542 2.55474C81.6553 2.41988 82.5897 2.42738 83.4611 2.93683C84.3548 3.45751 84.6996 4.28162 84.9147 5.20688C85.0778 5.90362 84.9777 6.58913 84.8368 7.29337C84.5958 8.51455 83.3907 9.66456 82.1373 9.72824C81.1695 9.77694 80.1906 9.78069 79.4082 9.08769C79.0559 8.77303 78.8075 8.33849 78.5108 7.95641C78.5108 7.72416 78.5887 7.44321 78.4886 7.2709C78.1586 6.709 78.255 6.10965 78.2365 5.51404C78.6295 5.05329 78.7852 4.52137 78.6962 3.91452H78.7037ZM83.1126 6.82138C83.1014 6.78392 83.0866 6.74646 83.0755 6.709C83.0866 6.46552 83.094 6.21828 83.1051 5.9748C83.1088 5.88489 83.1126 5.79499 83.1163 5.70509C83.0643 5.44287 83.0495 5.16942 82.9531 4.92593C82.7269 4.36029 82.23 4.11306 81.6812 4.02315C81.1362 3.937 80.6912 4.11306 80.3463 4.61127C79.7975 5.40541 79.842 6.26324 80.0312 7.12106C80.1684 7.75413 80.8692 8.22986 81.4847 8.22612C82.3339 8.22237 82.764 7.85152 83.1088 6.82138H83.1126Z" fill="white"/>
<path d="M38.9087 9.35365C38.8902 7.94517 38.9161 6.5292 38.8309 5.12446C38.7789 4.25166 37.6628 3.91077 36.9472 4.47267C36.6542 4.70117 36.5986 4.99336 36.6023 5.32675C36.6023 5.39043 36.6023 5.45036 36.6023 5.51404C36.6023 5.63766 36.6023 5.76502 36.6023 5.88864C36.4948 5.99353 36.4021 6.12838 36.276 6.19955C36.0498 6.33066 35.8125 6.45053 35.5641 6.51047C35.5084 6.52545 35.3379 6.27822 35.3119 6.13213C35.2452 5.71258 35.2377 5.28179 35.1784 4.8585C35.1636 4.75736 35.0449 4.6712 34.9708 4.57755C35.2711 3.66729 35.7754 2.9181 36.7543 2.70458C37.8631 2.46484 38.9458 2.49106 39.8061 3.41631C40.4142 2.60718 41.6379 2.3562 42.8319 2.68959C44.011 3.01924 44.6043 4.07934 44.5932 5.04205C44.4671 5.41665 44.3559 5.79874 44.2113 6.16584C44.1074 6.4318 43.9628 6.67904 43.8368 6.93376C43.7774 6.92252 43.7144 6.91129 43.6551 6.90005C43.5624 6.61535 43.4919 6.31942 43.3732 6.04597C43.2917 5.85493 43.1433 5.6901 43.0247 5.51404C42.7948 4.47267 42.4722 4.16175 41.6601 4.19921C41.1484 4.22543 40.633 4.70866 40.6293 5.23684C40.6181 6.60786 40.6293 7.98263 40.6367 9.35365C40.6367 9.38362 40.6367 9.41358 40.6367 9.4473C40.5106 9.51098 40.3845 9.61961 40.2548 9.6271C39.9025 9.65333 39.5502 9.64583 39.198 9.6271C39.0941 9.61961 38.9977 9.51098 38.9013 9.4473C38.9161 9.41733 38.9199 9.38736 38.9013 9.35739L38.9087 9.35365Z" fill="white"/>
<path d="M65.8145 5.68634C65.8479 5.66386 65.8812 5.64513 65.9109 5.62266C66.0333 5.82119 66.163 6.01973 66.2743 6.22576C66.3781 6.4168 66.4634 6.61908 66.5598 6.81387C66.2372 7.07234 66.0666 7.38326 66.1853 7.81029C66.3225 8.31225 66.6562 8.42089 67.1457 8.43962C67.5758 8.4546 67.8094 8.1774 68.1061 8.00508C68.284 7.9002 68.4361 7.6642 68.4917 7.45443C68.577 7.13602 68.5659 6.79139 68.5955 6.46175C68.1988 6.08341 67.9132 5.67885 68.3174 5.12819C68.3768 4.88096 68.551 4.57379 68.462 4.40147C68.3656 4.21043 68.0393 4.04935 67.802 4.03063C67.1828 3.97818 66.5116 3.91075 66.2594 4.73486C66.2409 4.79855 66.0852 4.85099 65.9888 4.85474C65.5438 4.86597 65.0988 4.85848 64.665 4.85848C64.4759 4.18421 65.1099 3.04544 65.8886 2.78322C67.1716 2.34869 68.4361 2.41237 69.656 3.05293C70.0565 3.2627 70.2382 3.60359 70.2753 4.04561C70.2827 4.13177 70.342 4.21043 70.3754 4.29284C70.3754 4.45017 70.3754 4.6075 70.3754 4.76109C70.3754 4.79105 70.3754 4.82102 70.3754 4.85099C70.3754 4.97461 70.3754 5.10197 70.3754 5.22558C70.342 5.97478 70.3124 6.72771 70.279 7.4769C70.2604 8.58196 69.5559 9.18506 68.6437 9.48474C67.5054 9.85933 66.3299 9.96047 65.2026 9.3349C64.5982 8.99776 64.1866 7.94515 64.372 7.27462C64.5204 6.73146 64.7948 6.30067 65.2434 5.97478L65.3473 5.9036C65.4103 5.86989 65.4733 5.83618 65.5364 5.80246C65.5623 5.79122 65.592 5.78373 65.618 5.77249L65.6142 5.77624C65.6773 5.74253 65.744 5.70881 65.8071 5.6751L65.8145 5.68634Z" fill="white"/>
<path d="M56.0103 13.9425C56.2995 13.448 56.5591 12.931 56.8928 12.4703C57.0374 12.2718 57.3341 12.1819 57.5603 12.047C57.8755 12.4928 58.1869 12.9385 58.5021 13.3843C58.3315 13.5716 58.1054 13.7289 57.9978 13.9499C57.5899 14.7778 57.5529 15.6281 57.9051 16.4972C58.1276 17.0441 58.5429 17.3176 59.0657 17.3962C59.6516 17.4824 60.1522 17.2988 60.5008 16.7519C60.9124 16.1039 60.7974 15.3959 60.7974 14.6991C61.0051 14.7291 61.2127 14.7815 61.4204 14.7815C61.832 14.7853 62.251 14.7441 62.5068 15.1824C62.5587 15.1412 62.6144 15.1 62.6663 15.0587C62.6032 15.5982 62.6181 16.1563 62.4623 16.6658C62.2102 17.5011 61.7393 18.254 60.9309 18.6249C59.0843 19.4752 56.9076 18.9995 56.0993 16.8568C55.9324 16.411 55.8916 15.9166 55.7952 15.4446C56.2624 15.0026 56.1401 14.4744 56.0066 13.9425H56.0103Z" fill="white"/>
<path d="M60.816 4.09432C60.5712 4.1093 60.3117 4.07184 60.0892 4.15425C59.6739 4.30409 59.4292 4.58504 59.3031 5.06826C59.1029 5.85117 59.1066 6.60036 59.3402 7.36079C59.4959 7.859 59.9743 8.21112 60.5008 8.23734C61.0978 8.27106 61.5205 8.01633 61.7578 7.48815C61.8431 7.48815 61.9321 7.48066 62.0174 7.47691C62.1435 7.42072 62.2733 7.36454 62.3993 7.30835C62.4587 7.30835 62.518 7.30835 62.5736 7.30835C62.5996 7.3533 62.6255 7.40199 62.6515 7.44695C62.6923 7.40199 62.7293 7.3533 62.7701 7.30835C62.8628 7.30835 62.9518 7.30835 63.0445 7.30835L63.6082 7.59679C63.3115 8.81047 62.4179 9.39484 61.3351 9.72823C60.2375 10.0691 59.2104 9.74322 58.3353 9.10641C57.7049 8.6494 57.3304 7.87024 57.2414 7.10232C57.1524 6.34189 57.2192 5.51778 57.4157 4.77608C57.6827 3.75718 58.3724 2.97428 59.4106 2.70831C60.0039 2.55847 60.6565 2.65212 61.2832 2.63714C61.1571 2.73079 61.0459 2.84691 60.9087 2.91059C60.5008 3.0904 60.4415 3.27395 60.6714 3.64855C60.7529 3.7834 60.7752 3.95197 60.8234 4.10555L60.816 4.09432Z" fill="white"/>
<path d="M52.9846 8.88914C52.966 7.88147 52.8733 6.86632 52.9549 5.86615C53.0439 4.76484 53.3628 3.69724 54.3862 3.07916C55.0092 2.70082 55.7063 2.49479 56.4553 2.53225C56.6036 2.68209 56.7557 2.83567 56.904 2.98551C56.904 3.07916 56.904 3.17281 56.904 3.26271C56.8929 3.27395 56.8743 3.28519 56.8743 3.28893C56.8817 3.31141 56.8929 3.33388 56.904 3.35636V4.3865C56.6778 4.3865 56.4664 4.40148 56.2551 4.3865C55.4208 4.31532 54.8571 4.85474 54.7941 5.7238C54.7236 6.69775 54.7236 7.67545 54.694 8.64939C54.694 8.71308 54.6866 8.77676 54.694 8.83669C54.7731 9.36862 54.5444 9.63458 54.008 9.63458C53.7595 9.63458 53.5074 9.66455 53.2701 9.62334C53.1551 9.60461 53.0624 9.44728 52.9586 9.35363C52.966 9.20005 52.9734 9.04647 52.9808 8.89288L52.9846 8.88914Z" fill="white"/>
<path d="M41.4228 14.1298C41.4339 14.7853 41.445 15.4408 41.4561 16.0964C41.3004 16.5646 41.1447 17.0329 40.9889 17.5049C40.5514 17.9244 40.1731 18.4451 39.6689 18.741C38.9532 19.1606 37.4848 19.1006 36.9545 18.2765C36.9138 18.2166 36.8025 18.2016 36.7246 18.1642C36.3316 18.1155 36.2129 17.9357 36.454 17.6997C36.8433 17.3213 36.7209 16.9392 36.6097 16.5122C36.5689 16.3624 36.6764 16.1751 36.7172 16.0027C36.7766 16.1376 36.8581 16.265 36.8952 16.4073C37.0435 16.9879 37.4255 17.34 37.9891 17.3962C38.5787 17.4524 39.1312 17.2052 39.3759 16.6545C39.5799 16.2013 39.5984 15.6619 39.6985 15.1636C40.0174 14.643 40.5032 14.6467 40.9704 14.7441C41.1372 14.5231 41.2819 14.3283 41.4265 14.1335L41.4228 14.1298Z" fill="white"/>
<path d="M36.7173 16.0027C36.6765 16.175 36.5689 16.3623 36.6097 16.5122C36.721 16.9392 36.8433 17.3213 36.454 17.6996C36.213 17.9319 36.3316 18.1117 36.7247 18.1641C36.7247 18.756 36.721 19.3479 36.7173 19.9397C36.7136 20.8837 36.428 21.1684 35.501 21.1572C35.3342 21.1572 35.1673 21.1572 34.9708 21.1572V14.6017C35.1376 14.6017 35.3082 14.5905 35.4751 14.6017C35.8904 14.6317 36.3057 14.6692 36.721 14.7029C36.721 15.1374 36.721 15.5682 36.721 16.0027H36.7173Z" fill="white"/>
<path d="M46.1839 14.1298C46.1172 13.8413 46.3137 13.433 45.8576 13.3169C45.2643 13.1671 44.6636 13.0285 44.1408 13.5154C44.1297 13.5267 44.1148 13.5342 44.1074 13.5491C43.9851 13.7402 43.8849 14.0773 43.7403 14.0998C43.2879 14.171 42.817 14.1448 42.3572 14.0961C42.2942 14.0886 42.1866 13.7252 42.2349 13.5716C42.5834 12.4478 43.3324 11.8897 44.5227 11.7623C45.4831 11.6612 46.3434 11.8223 47.1962 12.2156C47.7191 12.4553 47.8785 12.9048 47.923 13.4255C47.9453 13.6877 47.9341 13.9537 47.9416 14.2197C47.9304 14.347 47.923 14.4707 47.9119 14.598C47.7525 14.6654 47.5485 14.6954 47.4373 14.8115C47.1629 15.0925 46.8699 15.1037 46.5362 14.9726C46.3805 14.7104 46.5918 14.2871 46.1802 14.1298H46.1839Z" fill="white"/>
<path d="M46.184 14.1298C46.5956 14.2833 46.3805 14.7066 46.54 14.9726C46.0431 14.7516 45.7909 15.0176 45.6129 15.4408C45.2125 15.4558 44.749 15.321 44.5932 15.8941C44.4931 15.9316 44.3893 15.954 44.2966 16.0027C43.6291 16.3511 43.5438 17.1378 44.1742 17.5536C44.3967 17.6997 44.7564 17.6397 45.053 17.6734C45.2125 18.1229 45.4312 18.5163 45.9244 18.6736C45.9615 18.6848 45.9726 18.7785 45.9949 18.8347C45.2162 18.8871 44.4264 19.037 43.6588 18.962C42.932 18.8909 42.3758 18.4076 42.0829 17.6884C42.0829 17.1565 42.0791 16.6283 42.0754 16.0964C42.4796 15.2198 43.1879 14.819 44.1186 14.7816C44.1853 14.7553 44.2521 14.7329 44.3151 14.7066C44.4671 14.6991 44.6229 14.6879 44.7749 14.6804C44.9492 14.7441 45.1791 14.9089 45.2866 14.849C45.561 14.6991 45.9986 14.7591 46.0727 14.3096C46.1098 14.2496 46.1469 14.1897 46.184 14.1298Z" fill="white"/>
<path d="M62.6737 15.0587C62.6218 15.0999 62.5662 15.1412 62.5143 15.1824C62.2621 14.7441 61.8431 14.7853 61.4278 14.7815C61.2202 14.7815 61.0125 14.7291 60.8049 14.6991C60.7789 14.6654 60.7381 14.6355 60.7344 14.598C60.638 13.7327 60.4415 13.4667 59.5738 13.2981C59.2364 13.2307 58.8618 13.3506 58.5059 13.3843L57.564 12.047C59.9372 11.0094 62.6033 11.9833 62.6774 15.0587H62.6737Z" fill="white"/>
<path d="M41.4228 14.1297C41.2782 14.3245 41.1335 14.5193 40.9667 14.7403C40.4995 14.6429 40.0137 14.6392 39.6948 15.1599C39.5836 14.5006 39.5168 13.7813 38.8382 13.4629C38.4897 13.2981 38.0447 13.3393 37.6442 13.2906C37.4403 13.0434 37.2401 12.7887 37.0287 12.5489C36.873 12.3766 36.695 12.223 36.5244 12.0582C37.5441 11.6049 38.5898 11.5375 39.6392 11.9046C40.6737 12.268 41.115 13.1558 41.4265 14.1297H41.4228Z" fill="white"/>
<path d="M45.6129 15.4408C45.7909 15.0175 46.043 14.7515 46.5399 14.9726C46.8736 15.1037 47.1629 15.0924 47.441 14.8115C47.5559 14.6954 47.7561 14.6654 47.9156 14.598C47.9267 15.2235 47.9378 15.8491 47.9453 16.4747C47.8526 17.782 47.2593 18.4863 45.9911 18.8384C45.9689 18.7822 45.9577 18.6885 45.9207 18.6773C45.4275 18.52 45.2087 18.1229 45.0493 17.6771C45.4497 17.3962 46.0282 17.3025 46.1023 16.677C46.1431 16.3323 46.158 15.9877 46.1839 15.6169H45.7019C45.6722 15.5607 45.6388 15.5007 45.6092 15.4445L45.6129 15.4408Z" fill="white"/>
<path d="M34.9708 4.57758C35.0412 4.67122 35.1636 4.75738 35.1784 4.85852C35.2377 5.28182 35.2452 5.7126 35.3119 6.13215C35.3341 6.27449 35.5084 6.52173 35.564 6.51049C35.8125 6.45055 36.0498 6.33068 36.276 6.19957C36.4021 6.1284 36.4948 5.99355 36.6023 5.88866C36.6023 7.04241 36.6097 8.19991 36.6134 9.35367C36.5875 9.41735 36.5615 9.48103 36.5356 9.54846C35.9979 9.58966 35.4639 9.63087 34.8039 9.68331C34.8632 7.93021 34.9188 6.25576 34.9745 4.57758H34.9708Z" fill="white"/>
<path d="M43.0247 5.51404C43.1433 5.6901 43.2917 5.85493 43.3732 6.04597C43.4919 6.31942 43.5623 6.61535 43.6551 6.90005C43.7144 6.91129 43.7774 6.92252 43.8367 6.93376C43.9628 6.67904 44.1111 6.4318 44.2113 6.16584C44.3559 5.79874 44.4671 5.41665 44.5932 5.04205C44.6229 5.16942 44.6748 5.29678 44.6785 5.42414C44.6859 6.6678 44.6636 7.91146 44.6896 9.15137C44.697 9.56342 44.5524 9.66831 44.1816 9.6346C43.8775 9.60837 43.5661 9.62336 43.2583 9.6346C42.9913 9.64209 42.9097 9.51098 42.9171 9.26375C42.9505 8.09126 42.9765 6.91878 43.0061 5.74255C43.0061 5.66388 43.0173 5.58896 43.021 5.5103L43.0247 5.51404Z" fill="white"/>
<path d="M60.816 4.09433C60.7678 3.94075 60.7455 3.77218 60.664 3.63732C60.4378 3.26647 60.4934 3.08292 60.9013 2.89937C61.0385 2.83943 61.1534 2.71956 61.2758 2.62592C61.6763 2.7308 62.1064 2.77575 62.4735 2.95556C62.8295 3.12787 63.2374 3.28895 63.3523 3.78716C63.4487 4.19172 63.6527 4.57007 63.8232 5.00085C63.2003 5.25932 62.5884 5.11323 61.9952 5.11698C61.9099 5.11698 61.7912 4.94092 61.7504 4.82479C61.5947 4.36779 61.2684 4.15801 60.816 4.09433Z" fill="white"/>
<path d="M50.5076 14.598C49.9328 14.598 49.3544 14.598 48.7796 14.598C48.7685 14.4406 48.7574 14.2871 48.7499 14.1297C48.9984 13.6203 49.206 13.0883 49.5027 12.6126C49.7734 12.1818 50.1998 11.9121 50.7115 11.811C50.819 12.1219 50.9229 12.4328 51.0378 12.74C51.1083 12.9273 51.1936 13.1108 51.2677 13.2944C50.8227 13.6165 50.6003 14.0698 50.5076 14.6017V14.598Z" fill="white"/>
<path d="M36.5207 12.0582C36.6913 12.2193 36.8693 12.3729 37.025 12.5489C37.2401 12.7887 37.4366 13.0434 37.6406 13.2906C37.2179 13.5641 36.9064 13.9125 36.8211 14.4332C36.8063 14.5268 36.7506 14.613 36.7136 14.7029C36.2983 14.6692 35.883 14.628 35.4676 14.6017C35.3008 14.5905 35.1339 14.6017 34.9634 14.6017C34.7854 13.5416 35.7124 12.3542 36.5207 12.062V12.0582Z" fill="white"/>
<path d="M77.5801 2.51728C77.2946 2.39741 77.0054 2.27379 76.7384 2.16141C76.4306 2.27379 76.0932 2.39741 75.7558 2.51728C75.752 2.14268 75.7446 1.77184 75.7446 1.39724C75.7446 1.0189 75.9337 0.737951 76.2749 0.618081C76.6791 0.47948 77.1018 0.400815 77.5801 0.280945V2.51353V2.51728Z" fill="white"/>
<path d="M66.5635 6.81392C66.4708 6.61913 66.3818 6.41684 66.2779 6.2258C66.1667 6.01977 66.0369 5.82498 65.9146 5.6227C66.4745 5.52531 67.0381 5.43166 67.5943 5.32302C67.839 5.27433 68.0801 5.19566 68.3211 5.12823C67.9169 5.67889 68.2024 6.07971 68.5992 6.4618C67.9206 6.57792 67.242 6.69779 66.5635 6.81392Z" fill="white"/>
<path d="M63.0371 7.30087C62.9444 7.30087 62.8554 7.30087 62.7627 7.30087C62.6996 7.30087 62.6329 7.30087 62.5699 7.30087C62.5105 7.30087 62.4512 7.30087 62.3956 7.30087C62.2695 7.35706 62.1397 7.41325 62.0137 7.47319C61.9284 7.47319 61.8394 7.48068 61.7541 7.48442C61.7949 7.33084 61.832 7.17725 61.8728 7.01243C62.4104 7.01243 62.9147 7.00494 63.419 7.01992C63.5043 7.01992 63.5896 7.13979 63.6749 7.19973C63.4635 7.23344 63.2522 7.26341 63.0371 7.29712V7.30087Z" fill="white"/>
<path d="M78.1289 7.01244C78.103 6.65283 78.0659 6.29697 78.0585 5.93735C78.0585 5.79501 78.1252 5.65266 78.1623 5.51031C78.1883 5.51031 78.2142 5.51031 78.2402 5.51031C78.255 6.10218 78.1623 6.70153 78.4923 7.26717C78.5924 7.43948 78.5146 7.72043 78.5146 7.95268C78.3848 7.63802 78.255 7.32336 78.1252 7.01244H78.1289Z" fill="white"/>
<path d="M78.2439 5.51407C78.2179 5.51407 78.192 5.51407 78.166 5.51407C78.192 5.23313 78.2216 4.95218 78.2476 4.67498C78.2698 4.64127 78.2921 4.6113 78.3143 4.57759C78.4441 4.35657 78.5739 4.13556 78.7037 3.91455C78.7927 4.51765 78.6369 5.04958 78.2439 5.51407Z" fill="white"/>
<path d="M46.0727 14.3096C46.0023 14.7591 45.561 14.6991 45.2866 14.849C45.1791 14.9089 44.9492 14.7441 44.7749 14.6804C45.2087 14.5568 45.6389 14.4332 46.0727 14.3133V14.3096Z" fill="white"/>
<path d="M56.0103 13.9424C56.1438 14.4706 56.2662 14.9988 55.799 15.4446C55.8694 14.9426 55.9399 14.4444 56.0103 13.9424Z" fill="white"/>
<path d="M63.0371 7.30089C63.2485 7.26717 63.4598 7.2372 63.6749 7.20349C63.6489 7.33085 63.6267 7.45822 63.6007 7.58932C63.4116 7.49193 63.2262 7.39828 63.0371 7.30089Z" fill="white"/>
<path d="M56.904 2.98555C56.7557 2.83571 56.6036 2.68213 56.4553 2.53229H56.904V2.98555Z" fill="white"/>
<path d="M51.2677 6.67906C51.327 6.67906 51.3901 6.67532 51.4494 6.67157C51.3901 6.67157 51.327 6.67532 51.2677 6.67906Z" fill="white"/>
<path d="M44.3151 14.7029C44.2483 14.7291 44.1816 14.7516 44.1185 14.7778C44.1853 14.7516 44.252 14.7291 44.3151 14.7029Z" fill="white"/>
<path d="M36.5281 9.54843C36.5541 9.48475 36.58 9.42106 36.606 9.35364C36.58 9.41732 36.5541 9.481 36.5281 9.54843Z" fill="white"/>
<path d="M38.9087 9.35364C38.9235 9.38361 38.9235 9.41357 38.9087 9.44354C38.8976 9.42106 38.8865 9.40234 38.8828 9.37986C38.8828 9.37237 38.9013 9.36488 38.9124 9.35364H38.9087Z" fill="white"/>
<path d="M56.9077 3.36013C56.8965 3.33765 56.8817 3.31518 56.878 3.2927C56.878 3.28521 56.8965 3.27397 56.9077 3.26648C56.9077 3.30019 56.9077 3.33016 56.9077 3.36387V3.36013Z" fill="white"/>
<path d="M65.3547 5.90735L65.2509 5.97852C65.2842 5.95605 65.3176 5.93357 65.3547 5.90735Z" fill="white"/>
<path d="M65.6253 5.78003C65.5994 5.79127 65.5697 5.79876 65.5438 5.81C65.5697 5.79127 65.5957 5.78378 65.6253 5.78003Z" fill="white"/>
<path d="M55.1797 16.9392C55.1797 16.9093 55.1797 16.8755 55.1797 16.8456C55.1908 16.8681 55.2019 16.8905 55.2094 16.913C55.2094 16.9205 55.1908 16.9317 55.1797 16.9392Z" fill="white"/>
<path d="M40.6404 9.44729C40.6404 9.41732 40.6404 9.38735 40.6404 9.35364C40.6515 9.37611 40.6663 9.39859 40.6738 9.42107C40.6738 9.42481 40.6552 9.43979 40.6441 9.44729H40.6404Z" fill="white"/>
<path d="M62.0137 7.47316C62.1397 7.41697 62.2695 7.36078 62.3956 7.30084C62.2695 7.35703 62.1397 7.41322 62.0137 7.47316Z" fill="white"/>
<path d="M62.5699 7.30084C62.6329 7.30084 62.6997 7.30084 62.7627 7.30084C62.7219 7.34579 62.6848 7.39449 62.644 7.43944C62.6181 7.39449 62.5921 7.34579 62.5662 7.30084H62.5699Z" fill="white"/>
<path d="M45.7056 15.6132C45.3348 15.7068 44.964 15.8005 44.5932 15.8941C44.7489 15.321 45.2162 15.4558 45.6129 15.4409C45.6426 15.497 45.676 15.557 45.7056 15.6132Z" fill="white"/>
<path d="M27.3247 18.7522C26.5572 19.1942 25.7859 19.6363 25.0183 20.082C23.7094 20.8387 22.2632 21.2246 20.8208 21.5804C20.005 21.7827 19.1447 21.8501 18.2993 21.8951C16.9013 21.9663 15.4997 22.0412 14.1055 21.9775C12.9968 21.9288 11.8806 21.7452 10.7942 21.4905C9.57792 21.2058 8.36538 20.8462 7.20476 20.3855C6.01818 19.9135 4.9243 19.2429 3.9157 18.4301C2.20999 17.0553 0.975207 15.3659 0.35596 13.2344C-0.0222627 11.9196 -0.0890079 10.586 0.10752 9.23C0.114936 9.17381 0.170557 9.12886 0.203929 9.07642C0.381916 9.08016 0.556196 9.08391 0.734183 9.08765C0.763847 9.11762 0.79722 9.14759 0.826884 9.1813C0.79722 9.39108 0.771263 9.60085 0.741599 9.81062C0.711934 10.2826 0.68227 10.7546 0.652605 11.2303C0.393041 11.5225 0.207637 11.8484 0.478326 12.208C0.596984 12.3654 0.8343 12.4328 1.0197 12.5414C1.54254 13.9874 2.43248 15.1898 3.57827 16.1638C5.39522 17.7108 7.5014 18.7597 9.8004 19.3478C11.1353 19.6887 12.5036 19.9734 13.8719 20.0745C15.3848 20.1869 16.9236 20.1345 18.4365 20.0034C19.6453 19.8985 20.843 19.6175 22.0259 19.3291C22.7564 19.153 23.4572 18.8309 24.158 18.5462C24.6475 18.3477 25.1184 18.1042 25.5968 17.8794C25.8378 17.7745 26.0825 17.6696 26.3235 17.5685C26.6758 17.9468 26.7166 18.5986 27.3284 18.7522H27.3247Z" fill="#0A0282"/>
<path d="M26.5127 2.72705C27.5139 3.30768 28.4335 3.99319 29.2122 4.8585C28.9971 4.92218 28.782 4.98587 28.567 5.04955C28.1517 4.45769 27.8884 4.47642 27.1431 4.73489C26.8612 4.83228 26.5906 4.97837 26.305 5.04205C25.6005 5.19189 24.8811 5.2743 24.1803 5.43913C23.0049 5.71258 21.8665 5.47659 20.7948 5.07951C19.5934 4.63749 18.4551 4.01566 17.1461 3.91078C17.0497 3.57739 17.2833 3.46501 17.5206 3.35637C17.7357 3.36387 17.9545 3.37136 18.1695 3.37885C18.4736 3.91827 18.6961 3.98195 19.0928 3.64481C19.1855 3.67853 19.282 3.71599 19.3747 3.7497C19.4154 3.77218 19.4525 3.79465 19.4933 3.81713C20.5909 4.28537 21.6774 4.71241 22.9047 4.81355C24.3435 4.93342 25.6635 4.63375 26.9725 4.14677C27.2172 4.05687 27.258 3.86582 27.0022 3.70475C26.5275 3.40133 26.0492 3.10165 25.5745 2.80197C25.7637 2.70458 25.9528 2.60344 26.1419 2.50604C26.2012 2.54725 26.2642 2.58471 26.3236 2.62591C26.3532 2.70083 26.3829 2.7795 26.4126 2.85442C26.4459 2.80946 26.4756 2.76826 26.509 2.72331L26.5127 2.72705Z" fill="#14138B"/>
<path d="M31.4258 8.79547C31.856 10.9831 31.652 13.0883 30.5767 15.0699C30.2207 14.9388 29.8685 14.8077 29.5125 14.6729C29.5941 14.5493 29.6756 14.4256 29.7572 14.2983C29.7758 14.2758 29.798 14.2533 29.8165 14.2309C29.8314 14.2046 29.8425 14.1747 29.8573 14.1484C30.6434 12.8935 31.1292 11.5562 31.0328 9.96421C30.5878 10.0241 30.1873 10.0279 29.8128 10.1328C28.7746 10.4287 27.7437 10.7621 26.7129 11.0843C26.7277 10.8557 26.7426 10.631 26.7537 10.4025C26.9205 10.3725 27.0911 10.3388 27.258 10.3088C27.5583 10.4137 27.8624 10.5261 27.9069 10.0279C27.9959 10.0092 28.0849 9.99043 28.1702 9.96796C29.0675 9.73196 29.9612 9.49596 30.8585 9.25622C31.0476 9.10264 31.2367 8.94906 31.4258 8.79547Z" fill="#0B0784"/>
<path d="M29.5125 14.6729C29.8684 14.804 30.2207 14.9351 30.5767 15.07C29.9278 16.2724 29.1305 17.3513 28.0329 18.1829C27.7919 18.3664 27.5583 18.5612 27.3247 18.7523C26.7129 18.5987 26.6721 17.9469 26.3198 17.5685C27.5435 16.7819 28.6374 15.8491 29.5125 14.6729Z" fill="#0F038C"/>
<path d="M3.32983 4.0943C4.16415 3.24022 5.14308 2.59966 6.23696 2.14265C7.18622 1.74558 8.1392 1.34476 9.08846 0.947693C9.11813 1.15372 9.14779 1.35975 9.17745 1.56578C8.19111 1.97034 7.18993 2.34493 6.22213 2.78696C5.66221 3.04168 5.15049 3.39755 4.54608 3.74967C4.73519 3.85081 4.82418 3.89951 4.91689 3.9482C4.88722 4.13176 4.85385 4.31156 4.82418 4.49511C4.42742 4.4127 4.0492 4.12426 3.62648 4.40521C3.53007 4.30032 3.43366 4.19544 3.33725 4.0943H3.32983Z" fill="#100C86"/>
<path d="M11.9622 0.288427C12.0549 0.277189 12.1476 0.269697 12.2403 0.258459C12.7669 0.176048 13.2934 0.0898912 13.8237 0.00748013C15.1141 0.00748013 16.4082 -1.17826e-05 17.6986 0.00748013C17.8581 0.00748013 18.0175 0.0749073 18.177 0.108621C18.2734 0.217254 18.3661 0.32214 18.4959 0.471979C18.2882 0.53566 18.1362 0.584357 17.9878 0.629309C17.8321 0.603087 17.6764 0.576865 17.5243 0.546898C17.1609 0.520676 16.8013 0.464487 16.4379 0.468233C15.7816 0.475725 15.1252 0.513184 14.4726 0.539406C13.4825 0.670514 12.4925 0.801623 11.5024 0.936477C11.6582 0.719212 11.8102 0.505692 11.9659 0.288427H11.9622Z" fill="#0D0481"/>
<path d="M3.32989 4.0943C3.4263 4.19919 3.52271 4.30407 3.61912 4.40521C2.8293 5.28926 1.97274 6.12086 1.46474 7.22217C1.26079 7.15475 1.05685 7.08357 0.852905 7.01614C1.57969 5.95604 2.16185 4.76857 3.32989 4.0943Z" fill="#211A8D"/>
<path d="M26.1493 2.50975C25.9601 2.60715 25.771 2.70829 25.5819 2.80568C25.378 2.71578 25.1777 2.61838 24.9738 2.53597C24.2544 2.24004 23.5314 1.94786 22.8083 1.65193C22.838 1.47212 22.8713 1.28857 22.901 1.10876C22.9307 1.11626 22.9603 1.12375 22.99 1.13499C23.0196 1.13499 23.0493 1.13499 23.0827 1.13499C23.2644 1.19492 23.4461 1.25111 23.6278 1.31105C24.1247 1.5433 24.6215 1.78304 25.1221 2.00779C25.2667 2.07148 25.4336 2.09395 25.5893 2.13516C25.7747 2.25877 25.9601 2.38239 26.1493 2.50601V2.50975Z" fill="#100C86"/>
<path d="M28.5706 5.0495C28.7857 4.98582 29.0008 4.92214 29.2158 4.85846C29.8721 5.514 30.4988 6.19202 30.7917 7.10603C30.662 7.23714 30.5322 7.36825 30.4024 7.49936C29.7906 6.68274 29.1824 5.86612 28.5706 5.0495Z" fill="#27208F"/>
<path d="M11.9622 0.288436C11.8065 0.505702 11.6544 0.719221 11.4987 0.936487C10.7237 1.14626 9.95242 1.35603 9.17743 1.56581C9.14777 1.35978 9.1181 1.15375 9.08844 0.947725C10.0414 0.704237 10.9425 0.247231 11.9585 0.288436H11.9622Z" fill="#141D90"/>
<path d="M22.9047 1.10502C22.8751 1.28483 22.8417 1.46838 22.812 1.64819C22.0074 1.43092 21.2027 1.21366 20.3981 0.99639C20.3981 0.846552 20.3981 0.700459 20.3981 0.550621C20.5427 0.614302 20.691 0.670492 20.8245 0.745411C21.0581 0.876519 21.225 0.891503 21.2324 0.546875C21.7886 0.730427 22.3485 0.917725 22.9047 1.10128V1.10502Z" fill="#141D90"/>
<path d="M0.852891 7.01617C1.05683 7.0836 1.26078 7.15478 1.46472 7.2222C1.43135 7.27839 1.40168 7.33458 1.36831 7.39077C1.34606 7.42074 1.32382 7.45445 1.30157 7.48442C1.11987 8.00885 0.938177 8.53703 0.756481 9.06147L0.734233 9.08769C0.556246 9.08394 0.381967 9.0802 0.203979 9.07645C0.359718 8.51456 0.511749 7.95266 0.667488 7.38702C0.689736 7.35331 0.715693 7.31585 0.737941 7.28214C0.737941 7.25217 0.745357 7.22595 0.756481 7.19973C0.77873 7.16227 0.804686 7.12481 0.826935 7.09109C0.826935 7.06113 0.830643 7.03865 0.849183 7.01617H0.852891Z" fill="#14138B"/>
<path d="M20.398 0.554373C20.398 0.704211 20.398 0.850304 20.398 1.00014C19.5934 0.876525 18.7924 0.749163 17.9878 0.625546C18.1398 0.576849 18.2881 0.531897 18.4958 0.468216C18.366 0.318378 18.2696 0.209745 18.1769 0.104858C18.455 0.134826 18.7331 0.164794 19.0112 0.194761C19.078 0.644276 19.3301 0.479454 19.5674 0.370821C19.6305 0.333362 19.6935 0.299648 19.7565 0.262189C19.8789 0.273426 20.0013 0.284664 20.1199 0.295902C20.2126 0.382059 20.3053 0.468216 20.4017 0.554373H20.398Z" fill="#14138B"/>
<path d="M30.4024 7.4994C30.5322 7.3683 30.662 7.23719 30.7918 7.10608C31.0031 7.66797 31.2145 8.23361 31.4258 8.79551C31.2367 8.94909 31.0476 9.10267 30.8585 9.25626C30.7361 8.73182 30.6175 8.20739 30.4951 7.68296C30.4729 7.64924 30.4469 7.61178 30.4247 7.57807C30.4061 7.55559 30.3987 7.52563 30.4024 7.4994Z" fill="#1B158B"/>
<path d="M20.3981 0.554369C20.3054 0.468212 20.2127 0.382055 20.1163 0.295898C20.4871 0.382055 20.8579 0.468212 21.2324 0.554369C21.2287 0.895251 21.0618 0.880268 20.8245 0.752905C20.6873 0.677986 20.539 0.621797 20.3981 0.558115V0.554369Z" fill="#322A95"/>
<path d="M19.5638 0.3671C19.3265 0.479479 19.0743 0.640555 19.0076 0.19104C19.193 0.19104 19.3784 0.19104 19.5638 0.19104C19.5638 0.247229 19.5638 0.307165 19.5638 0.363354V0.3671Z" fill="#141D90"/>
<path d="M26.5127 2.72703C26.4793 2.77199 26.4496 2.81319 26.4163 2.85814C26.3866 2.78322 26.3569 2.70456 26.3273 2.62964C26.3903 2.66335 26.4496 2.69707 26.5127 2.72703Z" fill="#100C86"/>
<path d="M19.5637 0.367077C19.5637 0.310888 19.5637 0.250953 19.5637 0.194763C19.6268 0.217239 19.6898 0.239715 19.7528 0.258444C19.6898 0.295904 19.6268 0.329618 19.5637 0.367077Z" fill="#322A95"/>
<path d="M0.830585 7.09106C0.808337 7.12852 0.78238 7.16598 0.760132 7.1997C0.78238 7.16224 0.808337 7.12478 0.830585 7.09106Z" fill="#211A8D"/>
<path d="M26.7091 11.0843C27.7437 10.7659 28.7708 10.4287 29.8091 10.1328C30.1836 10.0279 30.5841 10.0204 31.029 9.96423C31.1254 11.56 30.6434 12.8973 29.8536 14.1485C29.4272 13.7402 29.0452 13.2719 28.5669 12.946C27.9773 12.5414 27.295 12.4665 26.6684 12.931C25.9304 13.4779 25.2 14.0361 24.4991 14.6279C23.9689 15.07 23.6759 15.6881 23.8428 16.3661C23.9726 16.898 24.2989 17.385 24.551 17.8869C24.577 17.9356 24.7142 17.9431 24.7958 17.9394C25.0591 17.9281 25.3223 17.9019 25.5856 17.8832C25.1073 18.1079 24.6363 18.3514 24.1469 18.55C23.446 18.8347 22.7452 19.1531 22.0147 19.3329C20.8319 19.6213 19.6304 19.906 18.4253 20.0071C16.9124 20.1382 15.3736 20.1869 13.8607 20.0783C12.4924 19.9772 11.1241 19.6925 9.78923 19.3516C7.49023 18.7635 5.38405 17.7146 3.5671 16.1675C2.42131 15.1936 1.53137 13.9911 1.00853 12.5452C0.886166 12.1069 0.7638 11.6724 0.645142 11.2341C0.674806 10.7621 0.704471 10.2901 0.734135 9.81439C0.89729 9.84061 1.06415 9.8556 1.2236 9.89306C2.3249 10.1628 3.42619 10.44 4.52749 10.7134C5.18381 10.9869 5.84385 11.2603 6.49647 11.5375C6.84503 11.6836 7.03043 11.8934 7.0601 12.3354C7.13797 13.4555 7.50506 13.8825 8.58782 14.141C8.73243 14.1747 8.90671 14.2871 8.96975 14.4144C9.37764 15.2198 9.9598 15.6955 10.9091 15.5457C10.9758 15.6056 11.0463 15.6618 11.113 15.7218C11.1427 15.778 11.1723 15.8304 11.2057 15.8828C11.2539 15.9278 11.3058 15.9765 11.354 16.0214C11.7879 16.6133 12.4331 16.5609 13.0523 16.5796C13.1228 16.6995 13.1895 16.8193 13.26 16.9392C13.3156 16.9729 13.3712 17.0104 13.4268 17.0441H13.4231C13.4565 17.0703 13.4899 17.1003 13.5233 17.134C13.742 17.2501 13.9608 17.37 14.1796 17.4899C14.2723 17.5198 14.365 17.5498 14.4577 17.5798C14.5504 17.5573 14.6431 17.5348 14.7358 17.5123C14.9212 17.4749 15.1066 17.4337 15.292 17.3962C15.355 17.37 15.4181 17.3438 15.4811 17.3175C15.9038 17.119 16.3117 17.1789 16.7381 17.34C17.2054 17.5161 17.6948 17.6247 18.1658 17.3213C18.3215 17.2351 18.4735 17.1452 18.6293 17.0591C19.5229 16.9692 20.3498 16.7482 20.8949 15.939C20.9431 15.8679 21.0729 15.8454 21.1693 15.8079C21.8887 15.5307 22.76 15.4446 22.8935 14.4219C23.1234 14.2946 23.3385 14.111 23.5832 14.0548C24.3916 13.8638 24.9886 13.5191 24.8366 12.3092C24.8032 12.032 24.8662 11.8335 25.1443 11.7211C25.6635 11.5151 26.1789 11.2978 26.698 11.0843H26.7091Z" fill="#00BBFE"/>
<path d="M25.593 17.8832C25.3298 17.9019 25.0665 17.9281 24.8032 17.9394C24.7179 17.9394 24.5807 17.9394 24.5585 17.8869C24.3026 17.3887 23.98 16.9017 23.8503 16.3661C23.6871 15.6881 23.98 15.07 24.5066 14.6279C25.2111 14.0398 25.9416 13.4779 26.6758 12.931C27.2988 12.4665 27.981 12.5415 28.5743 12.946C29.0527 13.2719 29.4346 13.7439 29.861 14.1485C29.8462 14.1747 29.8351 14.2047 29.8202 14.2309C29.7943 14.2459 29.772 14.2683 29.7609 14.2983C29.6793 14.4219 29.5978 14.5455 29.5162 14.6729C28.6411 15.8491 27.5472 16.7819 26.3235 17.5685C26.0825 17.6734 25.8378 17.7783 25.5968 17.8794L25.593 17.8832Z" fill="#00C1FF"/>
<path d="M4.53871 10.7134C3.43742 10.44 2.33612 10.1628 1.23483 9.89308C1.07538 9.85188 0.908516 9.84064 0.745361 9.81442C0.775026 9.60464 0.800982 9.39487 0.830647 9.1851L0.852895 9.15887C1.55743 9.31995 2.26567 9.48477 2.9702 9.64585C3.43371 9.80692 3.89722 9.96426 4.36073 10.1253C4.42006 10.3201 4.47938 10.5187 4.53871 10.7134Z" fill="#100C86"/>
<path d="M0.652654 11.2303C0.77502 11.6686 0.897387 12.1032 1.01604 12.5414C0.830641 12.4328 0.593325 12.3654 0.474667 12.208C0.203978 11.8484 0.389381 11.5188 0.648946 11.2303H0.652654Z" fill="#100C86"/>
<path d="M0.826833 9.18133C0.797168 9.15137 0.763795 9.1214 0.734131 9.08768L0.756379 9.06146C0.786044 9.09143 0.819416 9.1214 0.849081 9.15137L0.826833 9.17759V9.18133Z" fill="#14138B"/>
<path d="M30.4024 7.49942C30.4024 7.52938 30.4062 7.5556 30.4247 7.57808C30.4469 7.61179 30.4729 7.64925 30.4951 7.68297C30.6175 8.2074 30.7362 8.73183 30.8585 9.25627C29.9612 9.49226 29.0675 9.73201 28.1702 9.968C28.0849 9.99048 27.9959 10.0092 27.9069 10.0279C27.6918 10.1216 27.4768 10.2152 27.258 10.3089C27.0911 10.3389 26.9206 10.3726 26.7537 10.4025C26.3866 10.5524 26.0195 10.7022 25.6524 10.852C25.289 11.0019 24.9256 11.1555 24.5622 11.3053C24.4732 11.3128 24.3805 11.324 24.2915 11.3315C24.2619 11.3203 24.2322 11.3128 24.2026 11.3016C23.9541 11.1143 23.7057 10.9307 23.4609 10.7434C23.2792 10.5599 23.0938 10.3763 22.9121 10.189C22.3856 9.70953 21.8553 9.23379 21.3325 8.75431C21.1323 8.57076 20.958 8.35349 20.7466 8.18118C20.2016 7.72417 19.6453 7.28215 19.0928 6.83638C18.9186 6.13214 18.8629 6.08719 18.2474 6.17335C17.1943 5.44663 16.3229 5.16194 14.9954 6.05722C14.2241 6.58166 13.4603 7.12107 12.6964 7.653C12.1439 7.86652 11.5914 7.94144 11.0315 7.67922C10.9611 7.58183 10.8943 7.48069 10.8239 7.38329C10.8609 7.32335 10.8906 7.25593 10.9388 7.20348C11.3319 6.79143 11.7286 6.38312 12.1254 5.97481C12.296 5.82497 12.4999 5.70136 12.6297 5.5253C13.0413 4.96715 13.5715 4.57382 14.1834 4.27415C14.4689 4.18424 14.7507 4.0419 15.0399 4.01568C15.7407 3.95199 16.4453 3.94076 17.1498 3.90704C18.4551 4.01193 19.5934 4.63001 20.7986 5.07578C21.8702 5.46911 23.0086 5.70885 24.184 5.43539C24.8848 5.27057 25.6042 5.18816 26.3087 5.03832C26.598 4.97839 26.8649 4.83229 27.1468 4.73115C27.8921 4.47268 28.1591 4.45395 28.5707 5.04581C29.1825 5.86243 29.7906 6.67905 30.4024 7.49567V7.49942Z" fill="#FEFDFE"/>
<path d="M17.9841 0.625563C18.7887 0.749179 19.5897 0.876542 20.3943 1.00016C21.199 1.21742 22.0036 1.43469 22.8083 1.65195C23.5314 1.94789 24.2507 2.24007 24.9738 2.536C25.1777 2.62216 25.378 2.71581 25.5819 2.80571C26.0566 3.10539 26.5349 3.40506 27.0095 3.70848C27.2654 3.87331 27.2246 4.0606 26.9799 4.15051C25.6709 4.63748 24.3508 4.93716 22.9121 4.81729C21.681 4.71615 20.5983 4.28911 19.5007 3.82086C19.4599 3.79839 19.4228 3.77591 19.382 3.75344C19.2893 3.71972 19.1929 3.68226 19.1002 3.64855C18.7925 3.55865 18.4847 3.46874 18.1769 3.38259C17.9619 3.37509 17.7431 3.3676 17.528 3.36386C17.4464 3.33014 17.3649 3.27021 17.2833 3.27021C16.6974 3.26646 16.1115 3.229 15.5294 3.28519C14.8508 3.34887 14.1648 3.44252 13.6123 3.922C13.5789 3.92575 13.553 3.94073 13.5344 3.96696C13.5122 3.98569 13.4899 4.00816 13.4677 4.02689C12.7965 4.52136 11.9807 4.56256 11.2206 4.78732C11.1019 4.79481 10.9759 4.78732 10.8609 4.8098C10.3603 4.92217 9.86343 5.04579 9.36655 5.16192C8.71764 5.03081 8.07244 4.8997 7.42353 4.76484C6.5855 4.49514 5.75119 4.22168 4.91317 3.95197C4.82046 3.90327 4.73147 3.85458 4.54236 3.75344C5.14677 3.40132 5.66219 3.04545 6.2184 2.79073C7.18992 2.3487 8.18739 1.97411 9.17373 1.56954C9.94872 1.35977 10.72 1.15 11.495 0.940223C12.485 0.809115 13.4751 0.678006 14.4651 0.543152C15.4812 0.543152 16.5009 0.543152 17.5169 0.546898L17.9804 0.629309L17.9841 0.625563Z" fill="#00BBFE"/>
<path d="M13.6123 3.91824C14.1648 3.4425 14.8508 3.3451 15.5294 3.28142C16.1078 3.22523 16.6974 3.25895 17.2833 3.26644C17.3649 3.26644 17.4464 3.32637 17.528 3.36009C17.2907 3.46497 17.0608 3.57735 17.1535 3.91449C16.449 3.9482 15.7444 3.95944 15.0436 4.02312C14.7507 4.04934 14.4726 4.19169 14.1871 4.28159C13.9942 4.16172 13.8051 4.03811 13.6123 3.91824Z" fill="#141D90"/>
<path d="M18.1732 3.37885C18.481 3.46875 18.7888 3.55865 19.0965 3.64481C18.6998 3.98194 18.4773 3.91826 18.1732 3.37885Z" fill="#141D90"/>
<path d="M24.5622 11.309C24.9256 11.1592 25.289 11.0056 25.6524 10.8558C26.0195 10.7059 26.3866 10.5561 26.7537 10.4062C26.7388 10.6348 26.724 10.8595 26.7129 11.088C26.1974 11.3015 25.682 11.5225 25.1592 11.7248C24.8774 11.8335 24.8143 12.0357 24.8514 12.3129C25.0034 13.5191 24.4065 13.8638 23.5981 14.0586C23.3534 14.1185 23.1383 14.302 22.9084 14.4257C22.7564 14.3919 22.608 14.3582 22.456 14.3245C22.3522 14.0773 22.2484 13.8263 22.1445 13.5791C22.3707 13.5154 22.5969 13.448 22.8194 13.3843C23.4869 13.7514 24.2507 13.3468 24.3063 12.6501C24.3397 12.2155 23.9763 12.0882 23.828 11.8035C23.9541 11.6387 24.0801 11.4776 24.2062 11.3128C24.2359 11.324 24.2655 11.3315 24.2952 11.3427C24.3842 11.3352 24.4769 11.324 24.5659 11.3165L24.5622 11.309Z" fill="#100C86"/>
<path d="M27.258 10.3088C27.4731 10.2152 27.6881 10.1215 27.9069 10.0279C27.8624 10.5299 27.5583 10.4137 27.258 10.3088Z" fill="#100C86"/>
<path d="M29.7572 14.2983C29.772 14.2684 29.7906 14.2459 29.8165 14.2309C29.7943 14.2534 29.7757 14.2758 29.7572 14.2983Z" fill="#00BBFE"/>
<path d="M23.8243 11.796C23.9727 12.0807 24.336 12.2081 24.3027 12.6426C24.2471 13.3393 23.4832 13.7439 22.8157 13.3768C21.8442 12.7063 21.1805 11.6462 20.0495 11.1405C20.0421 11.339 20.0421 11.5488 20.1496 11.6537C20.7986 12.3055 21.4734 12.9385 22.1409 13.5753C22.2447 13.8226 22.3485 14.0735 22.4523 14.3208C22.3782 14.4369 22.3189 14.5605 22.2299 14.6617C21.8034 15.1599 21.2213 15.3734 20.6836 14.9726C20.0384 14.362 19.3932 13.7476 18.7517 13.1371L18.5774 13.2944C18.926 14.1485 19.7677 14.6542 20.2053 15.4483C20.1904 15.6019 20.2349 15.8266 20.1533 15.9016C19.9234 16.1001 19.6416 16.2387 19.3821 16.3998C19.3227 16.3998 19.2634 16.4073 19.2078 16.411C19.1448 16.4073 19.078 16.4035 19.015 16.396C18.8518 16.2687 18.6924 16.1413 18.5292 16.0102C18.1176 15.467 17.6689 14.9688 17.0015 14.7366C17.2277 15.4183 17.7023 15.9016 18.1844 16.3773C18.2548 16.632 18.1213 16.7706 17.9063 16.8643C17.6764 16.8605 17.4428 16.8643 17.2129 16.8456C16.5232 16.8043 16.423 16.692 16.4193 16.0027C16.4193 15.7555 16.4119 15.5045 16.4082 15.2573C16.3711 14.5493 15.8557 14.2871 15.3069 14.0548C14.8211 13.9761 14.48 13.7739 14.5542 13.197C14.1685 12.3317 13.7718 12.047 12.9931 12.0844C12.6186 12.1032 12.2922 12.0282 12.029 11.7136C11.9363 11.6012 11.7509 11.5638 11.6063 11.4963C11.1761 11.2416 10.4086 11.2416 10.1119 11.4963C9.94504 11.4439 9.78189 11.3914 9.61502 11.3465C9.26276 11.2453 8.90678 11.0618 8.55452 11.0655C8.18 11.0655 7.80549 11.2453 7.43097 11.3465L4.92803 10.189C4.48677 9.56341 3.78965 9.57465 3.14445 9.46976C3.09995 9.46227 3.03321 9.58589 2.97759 9.64582C2.27305 9.48475 1.56481 9.31992 0.86028 9.15885C0.830615 9.12888 0.797243 9.09891 0.767578 9.06894C0.949273 8.54451 1.13097 8.01633 1.31266 7.4919C1.33491 7.46193 1.35716 7.42822 1.37941 7.39825C1.41278 7.34206 1.44245 7.28587 1.47582 7.22968C1.98753 6.12837 2.84039 5.29677 3.63021 4.41272C4.05292 4.13177 4.43115 4.42021 4.82791 4.50262C5.66223 4.80605 6.50025 5.10947 7.33456 5.41289C7.36423 5.41289 7.39389 5.41289 7.42356 5.41289C7.45693 5.41289 7.48659 5.41289 7.51997 5.41289C8.29124 5.50654 9.06252 5.60019 9.8338 5.69384C9.98954 5.67511 10.1453 5.65263 10.301 5.6339C10.3641 5.6339 10.4234 5.63016 10.4864 5.62641C10.5791 5.60019 10.6718 5.57022 10.7645 5.544C10.7979 5.82495 10.8313 6.10215 10.8646 6.38309C10.8313 6.43928 10.7979 6.49922 10.7645 6.55541C10.7349 6.58912 10.7052 6.62284 10.6718 6.65655C10.6422 6.68652 10.6125 6.71648 10.5828 6.74645C10.5495 6.77642 10.5161 6.80639 10.4827 6.83635C10.3937 6.95997 10.3084 7.08733 10.2194 7.21095C10.1193 7.74662 10.3492 8.07252 10.8535 8.2261C11.6137 8.64565 12.3553 8.64565 13.0858 8.14744C13.5159 7.85151 13.9535 7.56307 14.3799 7.25216C14.9769 6.81763 15.5331 6.34938 16.3192 6.25948C17.2425 6.15459 17.8692 6.67528 18.4995 7.19597C19.764 8.24483 21.0099 9.32367 22.2595 10.3875C22.597 10.676 22.9344 10.9644 23.2681 11.2491C23.4572 11.4326 23.6426 11.6162 23.8317 11.796H23.8243Z" fill="#FEFDFE"/>
<path d="M7.32715 5.40914C6.49283 5.10572 5.65481 4.8023 4.8205 4.49887C4.85016 4.31532 4.88353 4.13552 4.9132 3.95197C5.75122 4.22542 6.58554 4.49513 7.42356 4.76858C7.39019 4.9821 7.36052 5.19937 7.32715 5.41289V5.40914Z" fill="#1B158B"/>
<path d="M17.5206 0.54312C16.5046 0.54312 15.4849 0.54312 14.4689 0.539374C15.1252 0.513152 15.7815 0.471947 16.4341 0.468201C16.7975 0.468201 17.1572 0.516898 17.5206 0.546866V0.54312Z" fill="#0B0784"/>
<path d="M4.91688 10.1852C5.7512 10.5711 6.58551 10.9569 7.41983 11.3427C7.57557 11.56 7.7313 11.7735 7.88704 11.9908C7.63119 12.3691 7.56444 12.7999 7.83513 13.152C8.2801 13.7327 8.86226 13.5491 9.41477 13.2682C9.61129 14.8265 9.91536 15.0625 11.3541 14.8003C11.432 15.04 11.5135 15.2797 11.5951 15.5232C11.6359 15.7442 11.7471 15.9952 11.3689 16.0177C11.3207 15.9727 11.2688 15.924 11.2206 15.8791C11.1909 15.8266 11.1613 15.7742 11.1279 15.7218C11.0611 15.6618 10.9907 15.6056 10.9239 15.5457C9.97468 15.6955 9.39623 15.2198 8.98463 14.4144C8.92159 14.2871 8.74361 14.1784 8.6027 14.141C7.51994 13.8788 7.15285 13.4555 7.07498 12.3354C7.04531 11.8971 6.8562 11.6874 6.51135 11.5375C5.85502 11.2603 5.19869 10.9869 4.54237 10.7134C4.48304 10.5186 4.42371 10.3201 4.36438 10.1253C4.54978 10.1478 4.73889 10.1665 4.9243 10.189L4.91688 10.1852Z" fill="#14138B"/>
<path d="M16.3971 15.2573C16.4008 15.5045 16.4082 15.7555 16.4082 16.0027C16.4082 16.692 16.512 16.8043 17.2017 16.8455C17.4316 16.8605 17.6652 16.8568 17.8951 16.8643C17.9878 17.0179 18.0805 17.1677 18.1732 17.3213C17.7023 17.6247 17.2128 17.5161 16.7456 17.34C16.3155 17.1789 15.9113 17.1227 15.4886 17.3175C15.4255 17.3438 15.3625 17.37 15.2995 17.3962C15.1141 17.4337 14.9287 17.4749 14.7433 17.5123C14.7173 17.4599 14.6913 17.4112 14.6654 17.3587C14.5986 17.4299 14.5319 17.5048 14.4652 17.576C14.3725 17.546 14.2798 17.5161 14.187 17.4861C14.0943 17.134 13.8162 17.1302 13.5307 17.1302C13.4973 17.1003 13.464 17.0666 13.4306 17.0366L13.4343 17.0403C13.3787 17.0066 13.3231 16.9692 13.2674 16.9355C13.197 16.8156 13.1303 16.6957 13.0598 16.5758C12.9671 16.3586 12.8781 16.1376 12.7854 15.9203C12.9337 15.8079 13.082 15.6955 13.2378 15.5794C13.7174 16.4335 14.1228 16.8942 14.454 16.9617C14.6098 17.2314 14.7655 17.2314 14.9175 16.9617C15.6554 16.6882 15.8408 16.471 15.8446 15.8641C15.8446 15.7255 15.8557 15.5869 15.8594 15.4483C16.0337 15.3846 16.2117 15.3247 16.3859 15.261L16.3971 15.2573Z" fill="#1B158B"/>
<path d="M19.0075 16.3961C19.0706 16.3998 19.1373 16.4036 19.2003 16.411C19.2597 16.411 19.319 16.4036 19.3746 16.3998C19.6342 16.2387 19.9197 16.1001 20.1459 15.9016C20.2312 15.8267 20.1867 15.6057 20.1978 15.4483C20.3573 15.291 20.5167 15.1299 20.6799 14.9726C21.2175 15.3734 21.8034 15.1599 22.2261 14.6617C22.3151 14.5605 22.3745 14.4332 22.4486 14.3208C22.6006 14.3545 22.749 14.3882 22.901 14.4219C22.7675 15.4446 21.8961 15.5307 21.1767 15.8079C21.0803 15.8454 20.9506 15.8641 20.9023 15.9391C20.3536 16.7482 19.5267 16.9692 18.6367 17.0591C18.7591 16.8381 18.8815 16.6171 19.0038 16.3923L19.0075 16.3961Z" fill="#0B0784"/>
<path d="M12.7928 15.924C12.8855 16.1413 12.9745 16.3623 13.0672 16.5796C12.4479 16.5609 11.8027 16.6133 11.3689 16.0214C11.7471 15.9952 11.6359 15.7442 11.5951 15.527C11.9325 15.8491 12.3404 15.9615 12.7928 15.924Z" fill="#141D90"/>
<path d="M19.0075 16.396C18.8851 16.617 18.7628 16.838 18.6404 17.0628C18.4847 17.1489 18.3326 17.2388 18.1769 17.325C18.0842 17.1714 17.9915 17.0216 17.8988 16.868C18.1139 16.7743 18.2437 16.6357 18.1769 16.381C18.2919 16.2574 18.4105 16.1338 18.5255 16.0139C18.6886 16.1413 18.8481 16.2686 19.0112 16.3997L19.0075 16.396Z" fill="#0F038C"/>
<path d="M13.5307 17.134C13.8125 17.134 14.0906 17.134 14.187 17.4898C13.9683 17.37 13.7495 17.2538 13.5307 17.134Z" fill="#141D90"/>
<path d="M14.4651 17.5798C14.5319 17.5086 14.5986 17.4337 14.6654 17.3625C14.6913 17.4149 14.7173 17.4636 14.7433 17.5161C14.6506 17.5385 14.5579 17.561 14.4651 17.5835V17.5798Z" fill="#141D90"/>
<path d="M11.1316 15.7255C11.1613 15.778 11.1909 15.8304 11.2243 15.8829C11.1946 15.8304 11.165 15.778 11.1316 15.7255Z" fill="#141D90"/>
<path d="M4.91687 10.1853C4.73147 10.1628 4.54236 10.1441 4.35696 10.1216C3.89345 9.9605 3.42994 9.80317 2.96643 9.64209C3.02205 9.57841 3.0888 9.45854 3.13329 9.46603C3.7785 9.57092 4.47561 9.55968 4.91687 10.1853Z" fill="#E3DFED"/>
<path d="M22.2521 10.3875C20.9988 9.31995 19.7566 8.24486 18.4921 7.19599C17.8655 6.67531 17.2351 6.15462 16.3118 6.2595C15.522 6.34941 14.9657 6.81765 14.3725 7.25218C13.9497 7.55935 13.5122 7.84779 13.0783 8.14747C12.9523 7.98639 12.8225 7.82531 12.6964 7.66424C13.464 7.13231 14.2241 6.58915 14.9954 6.06846C16.3192 5.17318 17.1943 5.45787 18.2474 6.18459C18.5292 6.4056 18.811 6.62661 19.0928 6.84762C19.6453 7.29713 20.2015 7.73916 20.7466 8.19242C20.9543 8.36848 21.1323 8.582 21.3325 8.76555C21.8553 9.24878 22.3856 9.72451 22.9121 10.2003C22.6934 10.2639 22.4746 10.3276 22.2521 10.3913V10.3875Z" fill="#211A8D"/>
<path d="M13.6123 3.91827C13.8051 4.03814 13.9942 4.16176 14.187 4.28163C13.5789 4.58131 13.0449 4.97463 12.6334 5.53278C12.5036 5.70884 12.2996 5.8362 12.1291 5.9823C12.0178 5.86992 11.8361 5.76878 11.8139 5.64141C11.7434 5.23685 11.5246 5.22936 11.2206 5.33425C11.2206 5.15069 11.2206 4.96714 11.2206 4.78359C11.9807 4.55883 12.7965 4.51763 13.4677 4.02316C13.4973 4.01192 13.5196 3.98945 13.5344 3.96323C13.553 3.937 13.5826 3.92202 13.6123 3.91827Z" fill="#100C86"/>
<path d="M11.2169 5.33424C11.5173 5.22935 11.7398 5.23684 11.8102 5.64141C11.8325 5.76877 12.0179 5.86991 12.1254 5.98229C11.7286 6.3906 11.3319 6.79891 10.9388 7.21096C10.8906 7.25966 10.8609 7.33083 10.8239 7.39077C10.6199 7.33083 10.416 7.26715 10.212 7.20721C10.301 7.0836 10.3863 6.95624 10.4753 6.83262C10.5087 6.80265 10.5421 6.77268 10.5754 6.74272C10.6051 6.71275 10.6348 6.68278 10.6644 6.65281C10.6941 6.6191 10.7237 6.58539 10.7571 6.55167C10.7905 6.49548 10.8239 6.43555 10.8572 6.37936C11.1391 6.12463 11.4468 5.88864 11.5024 5.41665C11.3467 5.45411 11.2355 5.48033 11.1279 5.50655C11.1576 5.45036 11.191 5.39417 11.2206 5.33798L11.2169 5.33424Z" fill="#322A95"/>
<path d="M12.6964 7.66046C12.8225 7.82154 12.9523 7.98261 13.0783 8.14369C12.3515 8.6419 11.6062 8.63816 10.8461 8.22235C10.9091 8.04255 10.9684 7.86649 11.0315 7.68668C11.5914 7.95265 12.1439 7.87773 12.6964 7.66046Z" fill="#27208F"/>
<path d="M22.2521 10.3875C22.4709 10.3238 22.6896 10.2602 22.9121 10.1965C23.0938 10.38 23.2792 10.5636 23.4609 10.7509C23.3942 10.9194 23.3311 11.0843 23.2644 11.2528C22.9269 10.9644 22.5895 10.676 22.2558 10.3913L22.2521 10.3875Z" fill="#322A95"/>
<path d="M11.0315 7.68291C10.9684 7.86272 10.9091 8.03878 10.8461 8.21858C10.3418 8.065 10.1119 7.74285 10.212 7.20343C10.4159 7.26337 10.6199 7.32705 10.8238 7.38698C10.8943 7.48438 10.961 7.58552 11.0315 7.68291Z" fill="#1B158B"/>
<path d="M23.2607 11.2491C23.3274 11.0805 23.3904 10.9157 23.4572 10.7471C23.7056 10.9344 23.9541 11.118 24.1988 11.3053C24.0727 11.4701 23.9467 11.6312 23.8206 11.796C23.6315 11.6124 23.4461 11.4289 23.257 11.2491H23.2607Z" fill="#211A8D"/>
<path d="M19.0928 6.8401C18.811 6.61909 18.5292 6.39808 18.2474 6.17706C18.8592 6.09091 18.9148 6.13586 19.0928 6.8401Z" fill="#E3DFED"/>
<path d="M7.32715 5.40914C7.36052 5.19562 7.39019 4.97835 7.42356 4.76483C8.07247 4.89594 8.71767 5.02705 9.36658 5.1619C9.51862 5.33796 9.67435 5.51402 9.82639 5.69008C9.05511 5.59643 8.28383 5.50278 7.51255 5.40914C7.49772 5.37168 7.47918 5.33422 7.46435 5.29676C7.44951 5.33422 7.43097 5.37168 7.41614 5.40914C7.38648 5.40914 7.35681 5.40914 7.32715 5.40914Z" fill="#0B0186"/>
<path d="M9.82638 5.68634C9.67435 5.51028 9.51861 5.33422 9.36658 5.15816C9.86346 5.03829 10.364 4.91842 10.8609 4.80604C10.9759 4.77982 11.0982 4.79106 11.2206 4.78357C11.2206 4.96712 11.2206 5.15067 11.2206 5.33422C11.1909 5.39041 11.1576 5.4466 11.1279 5.50279C11.0055 5.51403 10.8795 5.52527 10.7571 5.53651C10.6644 5.56273 10.5717 5.5927 10.479 5.61892C10.416 5.61892 10.3566 5.62266 10.2936 5.62641C10.1379 5.64514 9.98212 5.66761 9.82638 5.68634Z" fill="#14138B"/>
<path d="M13.5345 3.9632C13.5196 3.99316 13.4974 4.01189 13.4677 4.02313C13.49 4.0044 13.5122 3.98193 13.5345 3.9632Z" fill="#141D90"/>
<path d="M22.1409 13.5753C21.4734 12.9385 20.8023 12.3054 20.1496 11.6536C20.0458 11.5488 20.0421 11.339 20.0495 11.1404C21.1805 11.6461 21.8442 12.7063 22.8157 13.3768C22.5896 13.4405 22.3634 13.5079 22.1409 13.5716V13.5753Z" fill="#322A95"/>
<path d="M7.88708 11.9908C7.73134 11.7735 7.5756 11.56 7.41986 11.3427C7.79438 11.2416 8.16889 11.0655 8.54341 11.0618C8.89567 11.0618 9.25165 11.2416 9.60391 11.3427C9.77077 11.3914 9.93393 11.4439 10.1008 11.4926C10.1972 11.6499 10.2899 11.8072 10.3863 11.9645C10.1342 12.1556 9.88572 12.3466 9.62987 12.5414C9.32581 11.5675 8.33575 11.4551 7.88708 11.987V11.9908Z" fill="#322A95"/>
<path d="M20.6799 14.9725C20.5204 15.1299 20.361 15.2909 20.1978 15.4483C19.7603 14.6541 18.9223 14.1484 18.57 13.2944L18.7443 13.137C19.3895 13.7476 20.0347 14.362 20.6762 14.9725H20.6799Z" fill="#27208F"/>
<path d="M11.5951 11.5001C11.7397 11.5713 11.9214 11.605 12.0178 11.7173C12.2774 12.032 12.6074 12.1032 12.9819 12.0882C13.1006 12.3317 13.5975 12.298 13.4417 12.74L13.1673 12.71C13.1265 12.6576 13.0895 12.6051 13.0487 12.5527C12.9968 12.6051 12.9411 12.6576 12.8892 12.71C12.7669 12.71 12.6408 12.71 12.5184 12.71C12.4888 12.7175 12.4591 12.7213 12.4294 12.7288C12.3961 12.7512 12.3664 12.7737 12.333 12.7962C12.1921 12.8411 12.0512 12.8823 11.9103 12.9273L11.9956 12.7887C11.8287 12.5227 11.6619 12.2568 11.495 11.9908C11.5284 11.826 11.5617 11.6612 11.5951 11.4963V11.5001Z" fill="#27208F"/>
<path d="M14.543 13.2007C14.4689 13.7776 14.8137 13.9799 15.2958 14.0586C15.1734 14.2346 15.0473 14.4107 14.9249 14.5867C14.5616 14.5455 14.1945 14.5081 13.9238 14.4781C13.9571 14.0848 13.9868 13.7364 14.0165 13.388C14.1907 13.3244 14.365 13.2644 14.543 13.2007Z" fill="#100C86"/>
<path d="M14.9249 14.5867C15.0473 14.4107 15.1734 14.2346 15.2957 14.0585C15.8445 14.287 16.3599 14.5493 16.397 15.261C16.2228 15.3247 16.0448 15.3846 15.8705 15.4483C15.6517 15.055 15.3996 14.6953 14.9249 14.5867Z" fill="#322A95"/>
<path d="M18.5218 16.0102C18.4068 16.1338 18.2882 16.2574 18.1732 16.3773C17.6912 15.9016 17.2203 15.4183 16.9904 14.7366C17.6578 14.9688 18.1065 15.467 18.5181 16.0102H18.5218Z" fill="#322A95"/>
<path d="M11.5951 11.5001C11.5617 11.6649 11.5284 11.8297 11.495 11.9945C11.1242 11.987 10.7571 11.9795 10.3863 11.9721C10.2899 11.8147 10.1972 11.6574 10.1008 11.5001C10.3974 11.2491 11.165 11.2491 11.5951 11.5001Z" fill="#1B158B"/>
<path d="M14.543 13.2007C14.3688 13.2644 14.1945 13.3243 14.0165 13.388C13.8237 13.1708 13.6308 12.9572 13.4417 12.74C13.5975 12.298 13.0969 12.3317 12.9819 12.0882C13.7606 12.0507 14.1611 12.3354 14.543 13.2007Z" fill="#322A95"/>
<path d="M10.7534 5.53652C10.8757 5.52528 11.0018 5.51404 11.1242 5.50281C11.2354 5.47658 11.3429 5.45036 11.4987 5.4129C11.4431 5.88489 11.1353 6.12089 10.8535 6.37561C10.8201 6.09467 10.7867 5.81747 10.7534 5.53652Z" fill="#F3ECF7"/>
<path d="M7.41614 5.40541C7.43097 5.36795 7.44951 5.33049 7.46434 5.29303C7.47917 5.33049 7.49772 5.36795 7.51255 5.40541C7.47917 5.40541 7.44951 5.40541 7.41614 5.40541Z" fill="#1B158B"/>
<path d="M10.2936 5.62639C10.3566 5.62639 10.4159 5.62264 10.479 5.6189C10.4159 5.6189 10.3566 5.62264 10.2936 5.62639Z" fill="#F3ECF7"/>
<path d="M19.3747 16.3998C19.3153 16.3998 19.256 16.4073 19.2004 16.411C19.2597 16.411 19.319 16.4035 19.3747 16.3998Z" fill="#0F038C"/>
<path d="M10.7571 6.54791C10.7274 6.58163 10.6977 6.61534 10.6644 6.64905C10.694 6.61534 10.7237 6.58163 10.7571 6.54791Z" fill="#F3ECF7"/>
<path d="M13.4417 12.74C13.6345 12.9572 13.8274 13.1707 14.0165 13.388C13.9868 13.7364 13.9571 14.0848 13.9238 14.4781C14.1945 14.508 14.5616 14.5492 14.9249 14.5867C15.3996 14.6953 15.6517 15.0512 15.8705 15.4483C15.8668 15.5869 15.8557 15.7255 15.8557 15.8641C15.8483 16.4709 15.6666 16.6882 14.9287 16.9616C14.7729 16.9616 14.6209 16.9616 14.4651 16.9616C14.1339 16.8942 13.7285 16.4335 13.2489 15.5794C13.0932 15.6955 12.9448 15.8079 12.7965 15.9203C12.3404 15.9577 11.9362 15.8454 11.5988 15.5232C11.5172 15.2835 11.4394 15.04 11.3578 14.8002C9.91906 15.0624 9.61129 14.8227 9.41847 13.2681C8.86597 13.5491 8.28009 13.7326 7.83884 13.152C7.57185 12.7999 7.6386 12.3691 7.89075 11.9908C8.33942 11.4551 9.32948 11.5712 9.63354 12.5452C9.8894 12.3504 10.1378 12.1593 10.39 11.9683C10.7608 11.9758 11.1279 11.9833 11.4987 11.9908C11.6656 12.2567 11.8324 12.5227 11.9993 12.7887L11.914 12.9273C12.0549 12.8823 12.1958 12.8411 12.3367 12.7961L12.4331 12.7287C12.4628 12.7287 12.4962 12.7212 12.5221 12.71C12.6445 12.71 12.7706 12.71 12.8929 12.71C12.9856 12.71 13.0783 12.71 13.171 12.71C13.2637 12.7212 13.3527 12.7287 13.4454 12.74H13.4417Z" fill="#FDFCFE"/>
<path d="M14.4651 16.9617C14.6209 16.9617 14.7729 16.9617 14.9287 16.9617C14.7766 17.2351 14.6209 17.2314 14.4651 16.9617Z" fill="#141D90"/>
<path d="M13.1673 12.71C13.0746 12.71 12.9819 12.71 12.8892 12.71C12.9411 12.6576 12.9968 12.6051 13.0487 12.5527C13.0895 12.6051 13.1265 12.6576 13.1673 12.71Z" fill="#322A95"/>
<path d="M12.5147 12.7137C12.485 12.725 12.4554 12.7325 12.4257 12.7325C12.4554 12.725 12.485 12.7212 12.5147 12.7137Z" fill="#322A95"/>
</svg>
